<svg xmlns="http://www.w3.org/2000/svg" xmlns:xlink="http://www.w3.org/1999/xlink" version="1.1" x="0px" y="0px" width="100px" height="100px" viewBox="0 0 100 100" enable-background="new 0 0 100 100" xml:space="preserve">
<g id="Captions">
</g>
<g id="Your_Icon">
	<path fill-rule="evenodd" clip-rule="evenodd" d="M20.574,64.951h11.054c-0.673-1.912-1.123-3.93-1.318-6.023h-8.533   c-7.975,0-14.44-6.473-14.44-14.456c0-7.983,6.466-14.456,14.44-14.456h21.862c7.977,0,14.441,6.473,14.441,14.456   c0,6.489-4.268,11.978-10.146,13.806c0.824,1.5,2.18,3.689,3.862,5.385C59.568,60.76,65.1,53.266,65.1,44.472   c0-11.31-9.158-20.479-20.458-20.479H20.574c-11.299,0-20.458,9.17-20.458,20.479C0.116,55.785,9.275,64.951,20.574,64.951z"/>
	<path fill-rule="evenodd" clip-rule="evenodd" d="M35.015,56.52c0,11.311,9.16,20.48,20.458,20.48h24.068   C90.841,77,100,67.83,100,56.52c0-11.312-9.159-20.48-20.458-20.48H68.471c0.677,1.913,1.13,3.931,1.33,6.023h8.738   c7.974,0,14.439,6.474,14.439,14.457c0,7.984-6.466,14.457-14.439,14.457H56.677c-7.976,0-14.442-6.473-14.442-14.457   c0-6.615,4.437-12.19,10.495-13.908c-0.447-2.259-1.676-4.238-3.4-5.632C41.034,39.592,35.015,47.352,35.015,56.52z"/>
</g>
</svg>